<?xml version="1.0" standalone="no"?>
<!DOCTYPE svg PUBLIC "-//W3C//DTD SVG 20010904//EN"
 "http://www.w3.org/TR/2001/REC-SVG-20010904/DTD/svg10.dtd">
<svg version="1.0" xmlns="http://www.w3.org/2000/svg"
 width="858.000000pt" height="858.000000pt" viewBox="0 0 858.000000 858.000000"
 preserveAspectRatio="xMidYMid meet">

<g transform="translate(0.000000,858.000000) scale(0.100000,-0.100000)"
fill="#614051" stroke="none">
<path d="M4050 8430 c-890 -58 -1710 -374 -2394 -925 -707 -568 -1210 -1351
-1431 -2224 -154 -612 -163 -1295 -25 -1893 215 -932 713 -1728 1455 -2327
233 -188 491 -356 750 -487 772 -390 1667 -534 2500 -403 545 86 1020 253
1485 524 919 533 1608 1405 1905 2409 122 417 165 717 165 1169 0 369 -30 629
-110 963 -314 1306 -1271 2403 -2530 2902 -561 222 -1204 328 -1770 292z m410
-449 c205 -68 523 -269 785 -495 93 -81 252 -231 284 -269 l26 -31 -25 7
c-500 140 -961 196 -1455 177 -316 -13 -597 -52 -887 -123 -76 -19 -138 -33
-138 -32 0 8 126 133 214 210 340 299 690 519 911 570 80 19 204 13 285 -14z
m220 -707 c291 -28 559 -79 830 -160 l155 -46 48 -59 c372 -454 631 -941 753
-1416 162 -635 132 -1305 -88 -1948 -82 -241 -229 -539 -368 -745 -66 -97 -73
-104 -140 -114 -25 -4 -155 -25 -290 -46 -505 -80 -885 -110 -1399 -110 -304
0 -529 10 -781 36 -199 20 -629 76 -686 89 -36 8 -228 311 -333 525 -267 542
-394 1232 -336 1831 24 251 67 461 140 688 132 408 403 883 709 1241 52 60 60
64 296 124 470 121 981 159 1490 110z m-2772 -2254 c-20 -303 18 -759 88
-1060 89 -378 266 -798 457 -1083 21 -32 37 -60 35 -62 -1 -2 -42 -21 -89 -43
-178 -82 -343 -211 -455 -358 -31 -41 -61 -74 -66 -74 -15 0 -51 21 -77 44
-36 32 -87 117 -162 267 -161 321 -263 658 -290 950 -38 414 131 952 450 1429
83 125 112 163 117 157 2 -1 -2 -77 -8 -167z m4918 -77 c137 -221 260 -507
322 -748 52 -205 65 -317 59 -510 -6 -178 -25 -293 -82 -495 -78 -279 -258
-673 -353 -773 -58 -60 -76 -54 -152 56 -114 163 -263 294 -415 363 -30 14
-55 27 -55 29 0 2 22 39 49 83 136 219 273 540 357 835 112 395 154 862 118
1327 l-6 75 46 -67 c25 -36 75 -115 112 -175z m-1036 -2339 c0 -22 -201 -239
-370 -400 -153 -145 -187 -163 -365 -192 -504 -83 -1026 -89 -1508 -17 -101
16 -132 27 -202 75 -102 70 -510 480 -486 488 6 2 69 -6 139 -17 257 -42 598
-76 924 -92 287 -14 704 -1 1026 32 244 24 585 74 722 103 129 29 120 27 120
20z m-499 -718 c99 -18 159 -45 203 -92 61 -64 60 -127 -2 -254 -43 -87 -172
-225 -285 -305 -74 -52 -228 -138 -235 -131 -2 3 5 17 16 33 36 50 100 186
124 263 19 64 23 96 23 210 -1 125 -3 140 -29 200 -15 36 -30 71 -33 78 -7 17
118 16 218 -2z m-1721 -10 c0 -2 -16 -37 -35 -78 -101 -213 -78 -434 71 -670
14 -21 22 -38 19 -38 -17 0 -162 81 -237 132 -176 120 -318 305 -318 415 0
117 82 184 263 217 106 20 237 32 237 22z m1255 -81 c24 -36 48 -88 60 -130
46 -172 -34 -401 -224 -639 -94 -118 -268 -304 -306 -327 -34 -21 -90 -24
-122 -6 -30 17 -220 221 -296 319 -163 211 -235 404 -208 565 11 72 56 168
106 226 l35 41 313 -2 c171 -1 355 2 407 7 52 5 117 8 144 7 49 -1 50 -2 91
-61z"/>
<path d="M4060 7051 c-255 -57 -454 -178 -560 -342 -49 -76 -64 -134 -57 -215
21 -226 287 -387 728 -440 158 -19 422 -14 564 11 243 43 408 134 476 265 34
65 34 203 -1 275 -96 200 -325 363 -612 436 -122 31 -418 36 -538 10z"/>
</g>
</svg>
