<?xml version="1.0" encoding="UTF-8"?>
<svg id="_Шар_1" data-name="Шар_1" xmlns="http://www.w3.org/2000/svg" version="1.1" viewBox="0 0 283.46 283.46">
  <!-- Generator: Adobe Illustrator 30.3.0, SVG Export Plug-In . SVG Version: 2.1.3 Build 182)  -->
  <defs>
    <style>
      .st0 {
        fill: #2b5ca8;
      }

      .st1 {
        fill: #ffdc0a;
      }
    </style>
  </defs>
  <circle class="st1" cx="141.73" cy="141.73" r="141.73"/>
  <circle class="st0" cx="141.73" cy="141.73" r="126.15"/>
  <g>
    <path class="st1" d="M162.78,161.79c1.67-1.77,4.49-4.04,7.47-6.44,7.72-6.22,16.47-13.27,15.97-19.46-.3-3.73-5.26-8.65-12.24-15.19-2.28-2.13-4.43-4.15-5.61-5.53-2.13-2.51-4.44-5.18-6.81-7.94-6.7-7.78-13.62-15.81-18.91-22.67-3.73-4.82-7.02-10.16-10.2-15.32-4.45-7.22-9.06-14.7-15.05-21.16-3.17-3.42-9.77-10.53-17.3-6.67-1.65.85-2.75,2.13-3.25,3.81-1.15,3.81,1.1,8.59,3.2,12.34,8.97,16.04,21.86,30.57,34.33,44.64,8.03,9.05,16.33,18.42,23.32,27.93,2.51,3.42,4.02,5.48,4.11,6.86.08,1.27-1.08,2.96-3.19,6.01-.3.44-.62.9-.96,1.39-10.34,15.11-21.96,30.27-33.2,44.94-7.18,9.36-14.59,19.04-21.56,28.56-1.05,1.44-2.54,3.1-4.1,4.85-2.68,2.99-5.44,6.08-7.08,9.13-2.68,5.01-1.05,8.02.79,9.67,1.5,1.34,3.87,1.62,5.62,1.62.65,0,1.21-.04,1.61-.08,1.18-.12,5.15-.65,6.73-2.75.85-1.13,1.19-2.15,1.48-3.04.28-.85.48-1.47,1.11-2.17,9.43-10.53,17.5-22.91,25.3-34.88,8.62-13.23,17.53-26.9,28.45-38.44h0v-.02Z"/>
    <path class="st1" d="M180.3,217.44c-2.24-3.52-16.08-23.72-19.27-26.07-2.65-1.95-5.79-1.93-8.63.05-3.99,2.79-6.69,9.02-5.57,12.83.49,1.65,12.7,19.59,13.3,20.43,1.06,1.47,2.04,3.04,2.99,4.56,2.73,4.39,5.55,8.92,10.73,11.57,1.73.88,6.14,1.9,10.16,1.9,3.2,0,6.16-.64,7.36-2.5,3.76-5.81-1.59-11.73-6.3-16.94-1.85-2.05-3.61-4-4.78-5.83h0Z"/>
    <path class="st1" d="M134.12,117.7l.24-.36.04-.43c.2-2-1.98-4.16-3.3-5.27-1.04-.87-4.63-3.65-7.53-2.84l-.75.21-.34.7c-1.22,2.52-5.62,7.32-9.87,11.96-7.07,7.72-11.41,12.61-11.62,15.62-.34,4.83,3.87,12.05,6.65,16.84.27.46.53.9.76,1.31.95,1.64,9.36,16.05,13.93,16.44.15.01.31.02.47.02,2.13,0,4.55-1.16,6.89-3.32,2.42-2.23,5.04-5.88,5.04-8.65s-2.75-6.2-5.92-10.1c-2.88-3.53-6.15-7.54-6.68-10.57-1.09-6.21,2.62-10.41,6.91-15.27,1.75-1.98,3.55-4.02,5.07-6.28h0Z"/>
    <path class="st1" d="M190.35,43.22l-.1-.06c-4.18-2.56-8.46-.12-11.9,1.85-1.17.67-2.27,1.3-3.29,1.71l-.46.19-.29.4c-1,1.39-3.32,4.15-6.01,7.35-12.2,14.51-17.92,22-17.43,25.28.33,2.21,1.91,4.36,3.92,5.35.81.4,1.65.59,2.51.59.98,0,1.96-.26,2.9-.78l.34-.19.22-.32c3.23-4.58,7.96-8.43,12.53-12.16,2.59-2.12,5.27-4.3,7.61-6.57.33-.32.71-.68,1.12-1.07,5.59-5.31,11.53-11.42,11.15-16.75-.14-1.93-1.12-3.59-2.84-4.81h.01Z"/>
  </g>
</svg>