<?xml version="1.0" standalone="no"?>
<!DOCTYPE svg PUBLIC "-//W3C//DTD SVG 20010904//EN"
 "http://www.w3.org/TR/2001/REC-SVG-20010904/DTD/svg10.dtd">
<svg version="1.0" xmlns="http://www.w3.org/2000/svg"
 width="835.000000pt" height="835.000000pt" viewBox="0 0 835.000000 835.000000"
 preserveAspectRatio="xMidYMid meet">

<g transform="translate(0.000000,835.000000) scale(0.100000,-0.100000)"
fill="#f97316" stroke="none">
<path d="M3825 8220 c-275 -28 -459 -60 -685 -120 -1119 -298 -2073 -1082
-2585 -2125 -132 -269 -206 -458 -256 -650 -5 -22 -13 -47 -16 -55 -7 -18 -4
-3 -46 -195 -86 -385 -114 -745 -87 -1115 38 -527 143 -943 354 -1403 14 -32
26 -59 26 -61 0 -2 38 -73 84 -157 194 -358 406 -643 706 -949 198 -202 615
-523 830 -639 25 -13 74 -40 110 -60 432 -241 1033 -426 1525 -471 190 -17
625 -14 840 6 98 9 413 63 516 89 131 33 342 97 447 136 398 147 847 405 1162
668 366 306 625 599 882 996 114 176 269 485 341 683 143 387 199 623 237 997
60 581 -2 1155 -179 1666 -76 218 -97 272 -161 409 -227 481 -457 809 -824
1175 -351 351 -657 571 -1081 780 -398 195 -815 320 -1275 381 -141 18 -726
28 -865 14z m449 -1082 c62 -31 196 -173 272 -289 79 -120 201 -355 190 -367
-11 -11 -1096 -15 -1096 -4 0 23 89 201 155 310 115 190 251 332 352 367 42
15 70 11 127 -17z m549 -875 c123 -362 184 -828 158 -1203 -26 -366 -86 -683
-198 -1050 l-38 -125 -550 -3 c-302 -1 -552 1 -556 5 -20 21 -131 426 -164
598 -14 72 -29 153 -35 180 -16 83 -38 311 -45 460 -16 338 45 770 158 1118
l31 97 606 0 607 0 26 -77z m-1498 -1718 c32 -189 72 -364 114 -493 17 -51 31
-99 31 -107 0 -7 -125 -134 -277 -283 -288 -279 -378 -362 -392 -362 -5 0 -19
9 -33 19 -22 18 -26 33 -41 158 -26 218 -28 260 -17 393 11 141 28 220 67 300
86 179 259 392 433 532 l75 61 7 -29 c3 -16 18 -101 33 -189z m1864 141 c123
-102 301 -313 375 -444 49 -87 83 -179 96 -264 15 -92 9 -463 -9 -548 -7 -30
-14 -65 -17 -77 -6 -29 -52 -53 -79 -42 -11 4 -162 147 -335 317 l-314 309 32
114 c71 256 142 588 142 670 0 52 8 49 109 -35z m-499 -954 c0 -4 -20 -66 -45
-137 -31 -88 -54 -137 -71 -152 -25 -23 -26 -23 -383 -23 -347 0 -359 1 -385
21 -14 11 -26 25 -26 30 0 5 -20 64 -45 130 -25 66 -45 125 -45 130 0 5 198 9
500 9 275 0 500 -4 500 -8z m-283 -523 c57 -133 84 -270 90 -471 9 -284 -31
-529 -139 -843 -34 -101 -119 -299 -135 -317 -35 -40 -64 -18 -105 77 -79 183
-162 451 -204 658 -31 151 -44 469 -25 595 20 127 80 323 112 367 5 6 80 10
190 10 l184 0 32 -76z m-612 -55 c-60 -196 -86 -377 -92 -636 -3 -126 -9 -228
-13 -228 -14 0 -94 95 -128 152 -56 95 -76 162 -77 263 0 182 68 301 265 460
30 24 55 43 57 41 2 -1 -4 -25 -12 -52z m879 -26 c153 -143 206 -244 214 -408
3 -83 1 -104 -21 -167 -26 -73 -61 -132 -126 -210 -55 -67 -64 -65 -57 14 9
96 -9 377 -34 513 -20 107 -62 287 -76 324 -12 32 15 14 100 -66z"/>
<path d="M4130 5950 c-247 -45 -387 -257 -325 -495 76 -291 457 -389 669 -172
159 163 154 418 -11 568 -83 76 -225 118 -333 99z"/>
</g>
</svg>
