<?xml version="1.0" encoding="UTF-8"?>
<svg id="_Шар_1" xmlns="http://www.w3.org/2000/svg" version="1.1" viewBox="0 0 720 283.46">
  <!-- Generator: Adobe Illustrator 30.3.0, SVG Export Plug-In . SVG Version: 2.1.3 Build 182)  -->
  <defs>
    <style>
      .st0 {
        fill: #fff;
      }

      .st1 {
        opacity: .2;
      }
    </style>
  </defs>
  <g class="st1">
    <path class="st0" d="M672.66,51.77c-2.45-1.4-4.77-2.72-6.51-4.09-1.99-1.57-4.69-3.96-7.81-6.74-12.41-11.02-29.42-26.1-40.42-25.14l-.59.05-51.82,38.48-.17.21c-.67.84-1.41,1.72-2.17,2.64-5.67,6.78-14.25,17.03-5.31,25.75l.36.35.47.15c11.92,3.81,15.6-3.22,18.55-8.87,1.02-1.95,2.08-3.97,3.41-5.57,14.3-17.21,21.45-19.74,24.92-18.83,3.42.9,5.02,5.98,5.76,10.08,2.23,12.27-.15,24.1-2.66,36.62-1.67,8.31-3.39,16.91-3.6,25.54-.4,16.94-.22,34.29-.04,51.07.28,26.49.57,53.88-1.42,80.55-.25,3.31-.07,5.8,1.56,8.73,2.27,4.08,7.32,6.93,11.73,6.93.81,0,1.6-.1,2.34-.3,3.37-.91,5.26-3.71,5.18-7.69-.11-5.39-.99-9.96-1.84-14.38-.9-4.65-1.74-9.05-1.63-14.07.6-25.68,2.29-51.8,3.93-77.06,1.09-16.8,2.22-34.16,3.01-51.26.39-8.49.2-17.12,0-25.46-.22-9.68-.45-19.68.25-29.43.65-1.68,1.46-1.91,1.73-1.99,3.19-.93,10.1,4.54,14.23,7.81,2.36,1.87,4.41,3.49,5.95,4.28,3.07,1.57,6.21,2.51,9.25,3.41,2.27.68,4.42,1.32,6.56,2.21,1.65.68,3.13,1.71,4.7,2.8,3.43,2.38,7.32,5.08,13.37,3.93l1.14-.22.42-1.08c3.86-9.92-5.4-15.19-12.84-19.43Z"/>
    <path class="st0" d="M446.98,117.69l-9.59,3.75c-.06-6.62,0-13.32.06-19.83.07-7.12.14-14.48.04-21.72-.03-2.09-.5-4.07-.95-5.97-.45-1.89-.88-3.68-.9-5.58-.04-2.66.37-6.42.79-10.4,1.29-12.02,2.9-26.97-4.89-32.36-3.46-2.4-6.18-3.21-8.53-2.56-3.07.84-4.74,4-6.06,6.89-7.9,17.27-5.18,43.18-2.78,66.05,1.3,12.39,2.53,24.1,2.1,33.63-.18,4.04-1.34,7.91-2.56,12.01-1.07,3.6-2.18,7.32-2.58,11.19-3.6,34.67-.06,82.22,5.11,109.37.7,3.66,4.22,6.11,8.79,6.11h.03c4.59-.01,8.27-2.53,8.93-6.12,4.96-26.75-1.3-96.1-1.57-99.01-.13-1.65.86-2.45,3.13-3.88,1.1-.69,2.24-1.41,3.08-2.42.76-.91,1.55-1.82,2.34-2.74,8.47-9.86,19.01-22.13,6.99-35.34l-.97-1.07Z"/>
    <path class="st0" d="M462.23,49.26c-.2-.18-.47-.44-.8-.76-6.42-6.1-10.7-9.3-13.56-7.55l-.71.43-.22.8c-1.6,5.67-3.59,17.25-.92,24.71,1.42,3.96,4.83,6.02,7.85,7.83,1.5.9,2.91,1.75,3.78,2.68,1.63,1.75,10.25,12.93,11.44,14.94.4,3.24-2.21,5.8-5.23,8.76-2.82,2.76-5.73,5.62-6.47,9.5-.64,3.36.58,6.59,1.66,9.43.64,1.68,1.24,3.27,1.45,4.75l.14.96.82.52c.62.39,1.28.57,1.98.57,3.46,0,7.85-4.46,12.72-9.81.86-.94,1.67-1.83,1.99-2.11,1.16-1,2.52-2.08,3.96-3.22,7.04-5.56,16.69-13.18,14.58-23.07-.98-4.57-30.9-36.11-34.46-39.38Z"/>
    <path class="st0" d="M111.84,166.96c2.05-2.16,5.49-4.94,9.14-7.88,9.44-7.61,20.14-16.23,19.54-23.8-.37-4.56-6.44-10.58-14.97-18.59-2.79-2.61-5.42-5.08-6.86-6.77-2.61-3.07-5.43-6.34-8.33-9.71-8.19-9.51-16.66-19.34-23.14-27.73-4.56-5.9-8.58-12.43-12.48-18.75-5.45-8.84-11.08-17.98-18.42-25.88-3.88-4.18-11.95-12.88-21.17-8.15-2.02,1.04-3.36,2.61-3.98,4.66-1.41,4.66,1.35,10.51,3.91,15.09,10.97,19.61,26.74,37.4,41.99,54.61,9.82,11.08,19.98,22.53,28.53,34.17,3.07,4.18,4.93,6.7,5.03,8.39.1,1.55-1.32,3.61-3.9,7.35-.37.53-.76,1.1-1.17,1.71-12.65,18.48-26.87,37.03-40.62,54.98-8.78,11.45-17.85,23.29-26.38,34.93-1.29,1.76-3.1,3.79-5.02,5.93-3.27,3.66-6.66,7.44-8.66,11.16-3.29,6.12-1.29,9.81.96,11.82,1.83,1.64,4.73,1.99,6.88,1.99.79,0,1.48-.05,1.97-.1,1.44-.14,6.3-.8,8.23-3.37,1.04-1.38,1.45-2.62,1.81-3.72.34-1.05.59-1.8,1.36-2.66,11.53-12.88,21.4-28.02,30.95-42.67,10.54-16.18,21.45-32.91,34.8-47.03h0Z"/>
    <path class="st0" d="M133.27,235.03c-2.74-4.3-19.67-29.01-23.57-31.89-3.24-2.39-7.09-2.36-10.56.07-4.88,3.41-8.19,11.04-6.82,15.69.6,2.02,15.53,23.97,16.27,24.99,1.3,1.8,2.5,3.72,3.65,5.58,3.34,5.36,6.78,10.91,13.13,14.15,2.12,1.09,7.51,2.33,12.44,2.33,3.91,0,7.54-.79,9.01-3.06,4.59-7.1-1.94-14.34-7.71-20.73-2.27-2.51-4.41-4.89-5.85-7.14Z"/>
    <path class="st0" d="M76.78,113.01l.29-.44.05-.52c.25-2.45-2.42-5.09-4.03-6.45-1.26-1.06-5.66-4.46-9.22-3.47l-.91.25-.41.85c-1.5,3.08-6.87,8.96-12.07,14.64-8.64,9.44-13.95,15.42-14.21,19.1-.42,5.91,4.73,14.75,8.14,20.59.33.57.64,1.1.93,1.6,1.16,2.01,11.45,19.64,17.04,20.11.19.02.38.02.57.02,2.6,0,5.57-1.42,8.43-4.05,2.97-2.73,6.16-7.2,6.16-10.58,0-3.46-3.36-7.58-7.24-12.35-3.52-4.32-7.52-9.22-8.17-12.93-1.33-7.6,3.2-12.74,8.46-18.68,2.14-2.42,4.34-4.92,6.2-7.68Z"/>
    <path class="st0" d="M145.56,21.9l-.12-.08c-5.11-3.14-10.35-.15-14.56,2.26-1.43.82-2.78,1.59-4.02,2.09l-.56.23-.36.49c-1.22,1.7-4.06,5.07-7.35,8.98-14.93,17.76-21.92,26.92-21.32,30.92.41,2.71,2.33,5.34,4.8,6.55.99.49,2.03.73,3.07.73,1.2,0,2.4-.32,3.55-.96l.42-.23.28-.39c3.95-5.6,9.74-10.31,15.33-14.87,3.17-2.58,6.45-5.26,9.31-8.04.4-.39.86-.83,1.37-1.31,6.84-6.5,14.1-13.97,13.64-20.49-.17-2.35-1.37-4.39-3.47-5.88Z"/>
    <path class="st0" d="M338.83,111.96c-1.49-1.99-2.89-3.86-3.87-5.9-1.45-3-2.66-6.21-3.84-9.31-1.53-4.04-3.12-8.22-5.29-12.2-3.5-6.42-8.04-12.46-12.44-18.3-4.95-6.57-10.06-13.36-13.57-20.59l-.18-.3c-2.03-2.84-4.91-3.73-7.89-2.43-5.93,2.57-11.52,14.01-10.7,18.11.9,4.5,7.11,12.73,15.78,23.85,3.61,4.63,7.01,9,8.71,11.69,6.21,9.87,14.67,25.39,14.33,28.27-.63,5.48-13.77,21.04-23.35,32.41-5.52,6.54-10.28,12.19-12.75,15.83-6.03,8.92-10.66,18.47-15.13,27.7-1.69,3.5-3.45,7.12-5.25,10.64-2.41,4.72-6.32,9.83-10.46,15.24-9.91,12.95-20.15,26.35-10.81,36.51,1.3,1.41,3.23,2.19,5.37,2.19.19,0,.38,0,.57-.02,3.56-.23,7.1-2.48,9.71-6.18,23.8-33.71,36.34-57.05,52.21-86.6,3.38-6.29,6.87-12.79,10.7-19.82,1.33-2.44,6.13-7.49,10.78-12.37,8.89-9.33,12.81-13.72,13.01-16.57v-.18s0-.18,0-.18c-.44-4.55-3.09-8.09-5.65-11.51Z"/>
    <path class="st0" d="M254.75,198.13h1.19s11.98-19.84,11.98-19.84l-.43-.99c-2.44-5.62-8.06-12.93-14.01-20.68-8.58-11.18-18.31-23.84-17.96-31.2.53-10.97,12.45-29.62,22.02-44.6,3.82-5.98,7.43-11.62,9.87-16.1,2.8-5.12,5.25-10.44,7.61-15.59,3.68-8.01,7.49-16.28,12.64-23.79l.53-.77-1.73-7.35-.78-.46c-2.68-1.56-9.95-1.37-12.53-.61-2.68.79-4.41,3.57-5.68,5.59-.23.37-.44.71-.65,1.02-10.5,15.63-23.33,38.98-31.38,55.2-.89,1.78-21.72,43.88-22.71,59.02-.36,5.49,5.4,12.48,10.48,18.64,1.86,2.26,3.62,4.39,4.78,6.11.67.99,1.98,3.07,3.64,5.7,17.48,27.66,20.58,30.69,23.1,30.7Z"/>
    <path class="st0" d="M307.28,224.84c-3.67-3.48-7.14-6.76-8.38-8.21l-1.68-1.98-11.55,15.04.09.84c.41,3.74,16.15,19,18.79,20.7,3.33,2.15,6.87,3.25,10.05,3.25,2.23,0,4.28-.54,5.96-1.65,2.96-1.95,4.26-5.45,3.56-9.58-.42-2.49-4.78-6.98-16.83-18.4Z"/>
  </g>
</svg>